<svg height="434pt" viewBox="-45 0 434 434.163" width="434pt" xmlns="http://www.w3.org/2000/svg"><path fill="#fff" d="M319.676 60.164h-.707c-13.758 0-24.578 12.547-24.578 27.559v120.5a7.001 7.001 0 01-14 0v-37.86c0-15.011-11.2-27.226-24.961-27.226-13.836.004-25.04 12.215-25.04 27.226v40.133a7.001 7.001 0 01-14 0v-51.148c0-15.012-11.542-27.184-25.296-27.184h-.754c-13.418 0-24.95 11.57-24.95 26.063v57.601a7.001 7.001 0 01-14 0v-55.95c0-.179-.019-.358-.019-.542 0-.45.02-.899.02-1.344V27.227C151.39 12.215 140.207 0 126.449 0c-13.758 0-24.945 12.2-24.953 27.207l-.152 216.832a7 7 0 01-12.41 4.438l-25.887-31.512a39.835 39.835 0 00-28.102-14.867 38.958 38.958 0 00-29.28 10.496c-.087.078-.177.144-.267.222l-5.316 4.387 89.91 172.684c14.238 27.36 41.168 44.277 70.278 44.277h103.757c44.38 0 80.52-38.816 80.567-86.629.094-98.8.172-200.383.035-260.098-.035-14.968-11.227-27.273-24.953-27.273zm0 0"/></svg>