<svg version="1.1" id="Capa_1" xmlns="http://www.w3.org/2000/svg" x="0" y="0" viewBox="0 0 511.999 511.999" xml:space="preserve"><path d="M503.032 214.882c2.751-10.253 2.881-20.179.357-29.58-11.585-43.216-73.753-54.24-118.468-55.781.46-73.43-17.932-118.694-52.197-127.875-34.935-9.369-79.334 21.611-119.817 83.152-42.318-24.107-79.505-36.036-106.404-34.176-7.439-10.208-19.458-16.518-32.328-16.518-22.042 0-39.975 17.933-39.975 39.975 0 12.87 6.311 24.888 16.518 32.329-1.861 26.897 10.07 64.089 34.176 106.405-61.542 40.482-92.519 84.88-83.153 119.815 8.746 32.642 50.717 51.002 118.643 52.147-.146 5.808-.078 11.3.201 16.45-15.576 5.55-26.421 20.329-26.421 37.63 0 22.042 17.933 39.975 39.975 39.975 2.37 0 4.704-.217 6.996-.623 9.899 16.964 23.008 27.992 38.267 32.082 45.737 12.258 94.177-44.067 120.133-83.646 41.909 23.306 111.373 51.81 145.194 17.988 33.893-33.908 5.183-103.609-18.177-145.52 11.227-7.325 21.381-14.733 30.32-22.125a39.79 39.79 0 0015.058 2.968c22.042 0 39.975-17.933 39.975-39.975a39.923 39.923 0 00-8.873-25.097zm-351.558 90.157a613.027 613.027 0 0026.855 28.661 606.027 606.027 0 0026.368 24.829c-21.912 3.318-43.256 5.38-62.984 6.062 1.7-17.041 4.921-36.718 9.761-59.552zm-10.304-43.962c-10.633-13.836-20.36-27.785-29.067-41.693 14.985-8.88 30.943-17.074 47.701-24.497a513.279 513.279 0 00-9.925 32.632c-3.297 12.311-6.154 23.316-8.709 33.558zm51.294 58.49a595.042 595.042 0 01-35.511-38.839c3.389-14.265 7.315-29.68 12.234-48.039a495.795 495.795 0 0115.553-48.043 496.12 496.12 0 0148.044-15.553 626.157 626.157 0 0149.384-11.119c13.019 10.971 25.619 22.521 37.494 34.397a587.875 587.875 0 0134.573 37.755 702.28 702.28 0 01-11.295 49.122c-4.303 16.06-9.507 32.124-15.469 47.825-16.029 6.193-32.199 11.502-48.131 15.773a701.64 701.64 0 01-49.121 11.295 587.21 587.21 0 01-37.755-34.574zM307.945 153.85c19.632-2.682 38.518-4.197 56.415-4.516-.891 17.618-2.812 36.118-5.727 55.279a606.549 606.549 0 00-24.838-26.378 614.58 614.58 0 00-25.85-24.385zm54.301 130.569a728.153 728.153 0 008.244-34.014c10.638 13.924 20.328 27.971 28.963 41.99-14.759 8.691-30.649 16.881-46.995 24.236a516.034 516.034 0 009.788-32.212zM280.868 37.135c12.479-9.746 30.705-20.465 46.683-16.183 23.98 6.425 37.729 46.677 37.374 108.384-24.228.374-50.084 2.845-77.097 7.354-19.052-15.562-38.42-29.526-57.735-41.619 16.413-24.789 33.846-44.715 50.775-57.936zm-61.39 74.872c14.136 8.851 28.315 18.749 42.383 29.586a654.772 654.772 0 00-34.247 8.191 514.025 514.025 0 00-32.633 9.926c7.422-16.757 15.616-32.716 24.497-47.703zM54.188 74.08c0-11.021 8.965-19.988 19.988-19.988 10.849 0 19.988 8.809 19.988 19.988 0 11.021-8.966 19.988-19.988 19.988-11.109 0-19.988-9.056-19.988-19.988zm16.319 39.797c24.868 2.249 45.725-18.495 43.465-43.466 22.234.515 53.357 11.516 88.342 31.354-12.361 20.856-23.435 43.484-33.011 67.444-23.964 9.577-46.591 20.651-67.443 33.011-19.836-34.984-30.837-66.109-31.353-88.343zM21.048 327.455c-4.282-15.972 6.437-34.202 16.183-46.681 13.221-16.929 33.146-34.361 57.936-50.776 11.694 18.678 25.137 37.404 40.079 55.826-7.088 31.05-11.584 57.045-13.639 78.968-57.107-.866-94.466-14.589-100.559-37.337zm113.091 131.387c-11.022 0-19.988-8.966-19.988-19.988a19.903 19.903 0 0119.988-19.988c11.021 0 19.988 8.966 19.988 19.988-.001 11.134-9.063 19.988-19.988 19.988zm97.247 15.857c-12.515 9.798-30.8 20.578-46.81 16.283-9.731-2.608-18.174-9.723-25.182-21.167 9.162-7.47 14.72-18.759 14.72-30.961 0-19.876-14.583-36.404-33.609-39.463-.228-4.599-.276-9.52-.128-14.763 26.321-.773 54.613-3.839 84.308-9.136 18.977 15.407 38.288 29.175 57.572 41.04-16.44 24.88-33.904 44.885-50.871 58.167zm61.467-75.114c-14.137-8.692-28.307-18.459-42.352-29.19a726.511 726.511 0 0034.013-8.244c10.831-2.904 21.764-6.268 32.685-10.04-7.373 16.657-15.516 32.539-24.346 47.474zm137.74 30.914c-18.144 18.144-64.87 9.873-120.474-20.842 12.299-20.818 23.309-43.368 32.82-67.212 23.166-9.416 45.935-20.628 66.604-32.794 30.892 55.771 39.245 102.646 21.05 120.848zm9.842-165.913c-7.223 5.749-15.247 11.523-24.002 17.265-11.821-19.182-25.521-38.388-40.843-57.26 4.669-26.194 7.612-51.386 8.773-75.089 56.297 1.975 93.305 17.043 99.721 40.98 1 3.727 1.321 7.653.974 11.749a39.92 39.92 0 00-13.129-2.228c-22.042 0-39.975 17.933-39.975 39.975a39.828 39.828 0 008.481 24.608zm31.495-4.621c-10.869 0-19.988-8.808-19.988-19.988 0-11.021 8.966-19.988 19.988-19.988 10.995 0 19.988 8.96 19.988 19.988-.001 11.022-8.967 19.988-19.988 19.988z"/><path d="M256.063 205.999c-27.553 0-49.969 22.416-49.969 49.969s22.416 49.969 49.969 49.969 49.969-22.416 49.969-49.969-22.416-49.969-49.969-49.969zm0 79.95c-16.532 0-29.981-13.45-29.981-29.981s13.45-29.981 29.981-29.981c16.532 0 29.981 13.45 29.981 29.981s-13.449 29.981-29.981 29.981z"/></svg>