<svg version="1.1" id="Capa_1" xmlns="http://www.w3.org/2000/svg" x="0" y="0" viewBox="0 0 511.998 511.998" xml:space="preserve"><path d="M417.474 65.916c-3.9-3.9-10.23-3.91-14.14 0-3.9 3.91-3.9 10.24 0 14.14 3.91 3.91 10.24 3.91 14.14 0 3.911-3.899 3.911-10.229 0-14.14zM276.051 263.911c-3.9-3.91-10.23-3.9-14.14 0-3.91 3.91-3.9 10.24 0 14.14 3.91 3.91 10.24 3.91 14.14 0 3.91-3.9 3.91-10.23 0-14.14zM79.327 403.494c-3.9-3.91-10.08-4.06-13.99-.16-3.9 3.91-3.9 10.24 0 14.14a10 10 0 0014.15 0c3.9-3.9 3.75-10.08-.16-13.98z"/><path d="M503.205 123.367c-9.405-9.405-23.22-11.097-34.148-5.868l-23.294-23.292c-3.905-3.905-10.237-3.905-14.143 0-3.905 3.905-3.905 10.237 0 14.143l22.089 22.089-6.329 6.329a58.884 58.884 0 01-8.558 7.069L368.72 73.735a58.971 58.971 0 017.071-8.556l.148-.151 13.334-13.912c11.613-11.703 11.586-30.672-.082-42.341-11.699-11.698-30.734-11.698-42.434 0l-.148.151-13.323 13.902c-12.98 12.994-22.906 29.073-28.7 46.489a119.186 119.186 0 00-3.811 61.051l.476 2.38c-45.719-3.376-91.291 13.406-124.194 46.309s-49.684 78.474-46.308 124.194l-2.38-.476a119.277 119.277 0 00-61.045 3.799c-17.426 5.809-33.496 15.73-46.481 28.698L8.952 346.588l-.178.173c-11.698 11.699-11.698 30.735 0 42.434 11.651 11.649 30.61 11.708 42.327.096L63 377.967l.178-.173a58.645 58.645 0 018.559-7.068l70.099 70.099a58.643 58.643 0 01-6.985 8.474l-4.82 4.586-22.263-22.263c-3.905-3.905-10.237-3.905-14.142 0s-3.905 10.237 0 14.142l23.292 23.292c-5.229 10.924-3.541 24.74 5.867 34.149 11.597 11.596 30.517 11.814 42.339.094l11.89-11.324.172-.167c12.994-12.983 22.952-29.086 28.8-46.574 10.981-32.965 3.386-62.577 3.323-63.43 45.169 3.335 90.89-13.006 124.195-46.302 32.903-32.912 49.683-78.484 46.307-124.198 21.406 4.338 42.043 3.805 63.434-3.322 17.478-5.844 33.581-15.801 46.561-28.793l13.4-13.4c11.723-11.723 11.725-30.697-.001-42.422zM419.2 152.495c-19.005 4.503-30.582-1.579-53.868-5.274-3.658-23.09-9.773-34.821-5.265-53.858l59.133 59.132zm-95.639-76.851c4.833-14.526 13.111-27.924 23.94-38.744l.151-.154 13.314-13.891c3.905-3.839 10.205-3.818 14.085.062 3.898 3.897 3.898 10.24 0 14.138l-.148.151-13.33 13.907a79.497 79.497 0 00-19.049 30.864c-9.123 27.395-.21 47.108 1.354 59.959a160.423 160.423 0 00-21.63-6.188c-.46-4.855-9.051-29.084 1.313-60.104zM91.36 362.064a59.273 59.273 0 0125.248-.454l28.613 5.724c3.679 23.186 9.774 34.88 5.28 53.87l-59.141-59.14zm95.656 76.839c-4.853 14.515-13.11 27.887-23.882 38.675l-11.881 11.315-.175.17a10 10 0 01-14.147 0 9.991 9.991 0 01-.073-14.065l11.875-11.3.178-.173c9.173-9.174 15.549-20.218 19.137-30.955 9.092-27.324.223-46.87-1.373-59.95a160.508 160.508 0 0021.64 6.191c.459 4.847 9.039 29.061-1.299 60.092zm132.345-117.542c-39.121 39.111-98.456 52.17-151.449 30.309-1.51-.622-47.262-9.647-47.38-9.671-13.459-2.696-27.478-1.826-40.557 2.521-10.768 3.601-21.75 9.973-30.85 19.042L37.231 374.88c-.06.057-.119.115-.177.173a9.99 9.99 0 01-14.138 0c-3.882-3.883-3.907-10.162-.072-14.075l11.875-11.3c.061-.058.121-.117.18-.176 10.816-10.825 24.216-19.107 38.751-23.953a99.255 99.255 0 0150.796-3.161l47.515 9.503c3.338.661 45.655 22.832 96.847.281 13.575-6.418 24.455-13.009 36.404-24.959 28.021-28.02 39.685-66.911 33.306-104.153 1.563.313 13.115 2.585 20.803 4.119 4.825 41.804-9.836 84.05-39.96 114.182zm-71.588-85.733l-20.863-20.863a98.906 98.906 0 0117.041-11.244l65.082 65.083a99.552 99.552 0 01-17.962 24.467 99.627 99.627 0 01-24.469 17.959l-65.08-65.08a98.924 98.924 0 0111.244-17.041l20.863 20.863c3.905 3.905 10.237 3.905 14.143 0 3.906-3.906 3.906-10.238.001-14.144zm16.532-40.037a97.915 97.915 0 0125.167-3.262 98.832 98.832 0 0126.989 3.771c4.856 17.149 4.981 35.11.477 52.123l-52.633-52.632zm-18.078 123.348c-17.009 4.506-34.976 4.38-52.14-.481-4.852-17.151-4.974-35.116-.471-52.129l52.611 52.61zm242.839-167.292l-13.402 13.403c-10.803 10.812-24.206 19.099-38.748 23.961-16.356 5.449-33.925 6.541-50.781 3.168-47.119-9.568-47.525-9.276-49.492-10.122-14.396-6.17-30.443-9.729-47.17-9.729-31.655 0-61.747 12.624-84.133 35.01-27.662 27.663-39.777 66.379-33.308 104.17l-20.794-4.159c-4.815-41.802 9.846-84.033 39.964-114.148 39.074-39.074 98.399-52.191 151.448-30.308 1.697.7-.842-.043 47.372 9.659a79.126 79.126 0 0040.574-2.52 79.577 79.577 0 0030.932-19.123l13.4-13.399a9.99 9.99 0 0114.138 0 9.99 9.99 0 010 14.137z"/></svg>